<svg width="177" height="40" viewBox="0 0 177 40" fill="none" xmlns="http://www.w3.org/2000/svg">
<path d="M43.4264 32V6.84666H61.503V10.9167H48.193V17.6633H60.183V21.7333H48.193V32H43.4264ZM65.3668 9.74333V5.49H69.8401V9.74333H65.3668ZM65.3668 32V12.7133H69.8401V32H65.3668ZM74.6051 32V12.7133H78.3451L78.7117 15.28H78.9684C79.4084 14.6933 79.9217 14.18 80.5084 13.74C81.1195 13.2756 81.8039 12.9211 82.5617 12.6767C83.3439 12.4078 84.1995 12.2733 85.1284 12.2733C86.3506 12.2733 87.4262 12.4933 88.3551 12.9333C89.3084 13.3733 90.0539 14.0822 90.5917 15.06C91.1295 16.0378 91.3984 17.3456 91.3984 18.9833V32H86.8884V19.79C86.8884 19.1056 86.8028 18.5433 86.6317 18.1033C86.4851 17.6389 86.2528 17.2722 85.9351 17.0033C85.6417 16.71 85.2751 16.5022 84.8351 16.38C84.3951 16.2578 83.9062 16.1967 83.3684 16.1967C82.5617 16.1967 81.8284 16.3922 81.1684 16.7833C80.5328 17.1744 80.0195 17.7122 79.6284 18.3967C79.2617 19.0811 79.0784 19.8756 79.0784 20.78V32H74.6051ZM100.968 32.44C100.43 32.44 99.8067 32.3667 99.0978 32.22C98.4134 32.0978 97.7411 31.8533 97.0811 31.4867C96.4456 31.12 95.92 30.5822 95.5045 29.8733C95.0889 29.14 94.8811 28.1867 94.8811 27.0133C94.8811 25.6933 95.1745 24.6056 95.7611 23.75C96.3478 22.87 97.1667 22.1856 98.2178 21.6967C99.2934 21.1833 100.564 20.8289 102.031 20.6333C103.522 20.4133 105.148 20.3033 106.908 20.3033V18.7267C106.908 18.1644 106.822 17.6633 106.651 17.2233C106.48 16.7833 106.162 16.4411 105.698 16.1967C105.258 15.9278 104.586 15.7933 103.681 15.7933C102.777 15.7933 102.068 15.9033 101.554 16.1233C101.041 16.3433 100.687 16.6122 100.491 16.93C100.296 17.2478 100.198 17.5778 100.198 17.92V18.4333H95.8711C95.8467 18.3111 95.8345 18.1889 95.8345 18.0667C95.8345 17.9444 95.8345 17.7978 95.8345 17.6267C95.8345 16.5267 96.1645 15.5733 96.8245 14.7667C97.4845 13.96 98.4011 13.3489 99.5745 12.9333C100.748 12.4933 102.104 12.2733 103.644 12.2733C105.404 12.2733 106.847 12.5178 107.971 13.0067C109.12 13.4956 109.976 14.1922 110.538 15.0967C111.1 16.0011 111.381 17.1011 111.381 18.3967V27.49C111.381 27.9544 111.516 28.2844 111.784 28.48C112.053 28.6756 112.347 28.7733 112.664 28.7733H113.838V31.8533C113.593 31.9511 113.239 32.0611 112.774 32.1833C112.31 32.33 111.736 32.4033 111.051 32.4033C110.416 32.4033 109.841 32.2933 109.328 32.0733C108.839 31.8778 108.423 31.5844 108.081 31.1933C107.739 30.8022 107.494 30.3378 107.348 29.8H107.128C106.712 30.3133 106.211 30.7778 105.624 31.1933C105.062 31.5844 104.39 31.89 103.608 32.11C102.85 32.33 101.97 32.44 100.968 32.44ZM102.324 28.7733C103.058 28.7733 103.706 28.6633 104.268 28.4433C104.854 28.2233 105.331 27.9178 105.698 27.5267C106.089 27.1356 106.382 26.6589 106.578 26.0967C106.798 25.5344 106.908 24.9233 106.908 24.2633V23.3833C105.563 23.3833 104.317 23.4689 103.168 23.64C102.043 23.8111 101.139 24.1289 100.454 24.5933C99.7945 25.0578 99.4645 25.7178 99.4645 26.5733C99.4645 27.0133 99.5623 27.4044 99.7578 27.7467C99.9778 28.0644 100.296 28.3211 100.711 28.5167C101.151 28.6878 101.689 28.7733 102.324 28.7733ZM116.392 32V12.7133H120.132L120.499 15.28H120.755C121.195 14.6933 121.709 14.18 122.295 13.74C122.907 13.2756 123.591 12.9211 124.349 12.6767C125.131 12.4078 125.987 12.2733 126.915 12.2733C128.138 12.2733 129.213 12.4933 130.142 12.9333C131.095 13.3733 131.841 14.0822 132.379 15.06C132.917 16.0378 133.185 17.3456 133.185 18.9833V32H128.675V19.79C128.675 19.1056 128.59 18.5433 128.419 18.1033C128.272 17.6389 128.04 17.2722 127.722 17.0033C127.429 16.71 127.062 16.5022 126.622 16.38C126.182 16.2578 125.693 16.1967 125.155 16.1967C124.349 16.1967 123.615 16.3922 122.955 16.7833C122.32 17.1744 121.807 17.7122 121.415 18.3967C121.049 19.0811 120.865 19.8756 120.865 20.78V32H116.392ZM145.835 32.44C143.83 32.44 142.156 32.0856 140.812 31.3767C139.492 30.6433 138.502 29.5311 137.842 28.04C137.182 26.5489 136.852 24.6544 136.852 22.3567C136.852 20.0344 137.182 18.14 137.842 16.6733C138.526 15.1822 139.528 14.0822 140.848 13.3733C142.193 12.64 143.855 12.2733 145.835 12.2733C147.13 12.2733 148.279 12.4322 149.282 12.75C150.284 13.0678 151.139 13.5567 151.848 14.2167C152.582 14.8522 153.132 15.6467 153.498 16.6C153.865 17.5533 154.048 18.6656 154.048 19.9367H149.502C149.502 19.0322 149.367 18.2867 149.098 17.7C148.829 17.1133 148.414 16.6733 147.852 16.38C147.314 16.0622 146.617 15.9033 145.762 15.9033C144.759 15.9033 143.94 16.1356 143.305 16.6C142.669 17.0644 142.193 17.7611 141.875 18.69C141.582 19.5944 141.435 20.7433 141.435 22.1367V22.6133C141.435 23.9822 141.582 25.1311 141.875 26.06C142.193 26.9889 142.682 27.6856 143.342 28.15C144.002 28.59 144.869 28.81 145.945 28.81C146.776 28.81 147.46 28.6633 147.998 28.37C148.56 28.0522 148.988 27.5878 149.282 26.9767C149.575 26.3656 149.722 25.6322 149.722 24.7767H154.048C154.048 25.9744 153.865 27.05 153.498 28.0033C153.132 28.9567 152.594 29.7633 151.885 30.4233C151.176 31.0833 150.308 31.5844 149.282 31.9267C148.279 32.2689 147.13 32.44 145.835 32.44ZM166.144 32.44C164.09 32.44 162.379 32.0856 161.01 31.3767C159.641 30.6433 158.615 29.5311 157.93 28.04C157.246 26.5489 156.904 24.6544 156.904 22.3567C156.904 20.0344 157.246 18.14 157.93 16.6733C158.615 15.1822 159.641 14.0822 161.01 13.3733C162.379 12.64 164.09 12.2733 166.144 12.2733C168.001 12.2733 169.554 12.6278 170.8 13.3367C172.071 14.0211 173.025 15.0844 173.66 16.5267C174.296 17.9689 174.614 19.8389 174.614 22.1367V23.4567H161.487C161.536 24.6544 161.719 25.6689 162.037 26.5C162.355 27.3067 162.844 27.9178 163.504 28.3333C164.188 28.7244 165.08 28.92 166.18 28.92C166.743 28.92 167.268 28.8467 167.757 28.7C168.246 28.5533 168.674 28.3333 169.04 28.04C169.407 27.7222 169.688 27.3311 169.884 26.8667C170.104 26.4022 170.214 25.8644 170.214 25.2533H174.614C174.614 26.4756 174.394 27.5389 173.954 28.4433C173.538 29.3478 172.939 30.0933 172.157 30.68C171.399 31.2667 170.507 31.7067 169.48 32C168.454 32.2933 167.341 32.44 166.144 32.44ZM161.56 20.3033H169.957C169.957 19.4967 169.859 18.8122 169.664 18.25C169.493 17.6878 169.236 17.2233 168.894 16.8567C168.576 16.49 168.185 16.2333 167.72 16.0867C167.256 15.9156 166.73 15.83 166.144 15.83C165.19 15.83 164.384 15.9889 163.724 16.3067C163.088 16.6244 162.599 17.1133 162.257 17.7733C161.915 18.4333 161.683 19.2767 161.56 20.3033Z" fill="url(#paint0_linear_1_7)"/>
<g clip-path="url(#clip0_1_7)">
<path d="M15.882 3.25354C23.5377 1.99587 31.0477 6.72709 33.0981 14.3792C35.2819 22.5293 30.4452 30.9067 22.2951 33.0906C14.1448 35.2743 5.76748 30.4377 3.58362 22.2876C2.1719 17.019 3.69398 11.6554 7.14831 7.93143L7.4886 7.57622L9.65905 9.72764C6.70435 12.7141 5.36929 17.1458 6.53504 21.4967C8.28217 28.0168 14.984 31.8861 21.5041 30.1391C28.0242 28.3921 31.8936 21.6901 30.1465 15.17C28.571 9.28962 22.965 5.56531 17.0971 6.17273L16.6776 6.22349L17.2463 8.34574L10.3549 6.23811L15.2692 0.967139L15.882 3.25354ZM24.2473 11.1587L22.7195 13.8049L26.0272 15.7146L24.4995 18.3608L17.2224 14.1594C16.8571 13.9484 16.3898 14.0737 16.1789 14.439C15.9914 14.7638 16.0695 15.1689 16.3458 15.4031L16.4586 15.4825L21.7509 18.538C23.5777 19.5927 24.2036 21.9287 23.1489 23.7555C22.0942 25.5823 19.7583 26.2082 17.9315 25.1535L16.6084 24.3896L15.0806 27.0358L12.4344 25.508L13.9622 22.8618L10.6544 20.9521L12.1822 18.3059L19.4593 22.5073C19.8246 22.7182 20.2918 22.593 20.5028 22.2277C20.6903 21.9029 20.6121 21.4977 20.3359 21.2636L20.2232 21.1842L14.9308 18.1287C13.1039 17.0739 12.478 14.738 13.5327 12.9112C14.5874 11.0844 16.9234 10.4585 18.7502 11.5132L20.0733 12.2771L21.6011 9.63089L24.2473 11.1587Z" fill="#20C97C"/>
</g>
<defs>
<linearGradient id="paint0_linear_1_7" x1="23.1905" y1="32" x2="185.476" y2="19.4286" gradientUnits="userSpaceOnUse">
<stop stop-color="#20C973"/>
<stop offset="1" stop-color="#20C9B3"/>
</linearGradient>
<clipPath id="clip0_1_7">
<rect width="36.6667" height="36.6667" fill="white"/>
</clipPath>
</defs>
</svg>
